#!OML:ASF H:\Male1\Project 1\Capture day 1\Session 1\Male1.ASF
:FULLY-SPECIFIED
:DEGREES
267
root 5.29493 15.4432 2.29161 174.519 -27.0761 -177.394
lowerback 8.59646 2.40254 1.10839
upperback 6.34214 2.76602 -1.81637
thorax 1.90885 1.24252 -2.68901
lowerneck 6.76168 3.83454 8.7148
upperneck 3.09211 5.5482 -3.23317
head 0.174168 2.81144 -2.62789
rclavicle -4.77083e-015 -1.59028e-015
rhumerus -9.93544 5.42537 -67.4039
rradius 98.6844
rwrist -20.2212
rhand -30.7708 17.5358
rfingers 7.12502
rthumb -4.06185 -12.4052
lclavicle -4.77083e-015 -1.59028e-015
lhumerus -6.94545 -9.2625 44.8545
lradius 104.202
lwrist 7.6608
lhand -27.0474 2.39256
lfingers 7.12502
lthumb -0.46583 32.3718
rfemur -3.42931 12.0583 24.4703
rtibia 22.3439
rfoot -24.1955 -30.9413
rtoes -17.442
lfemur -2.99111 -14.4364 -16.3411
ltibia 23.7166
lfoot -18.5231 24.0779
ltoes -12.146
268
root 5.2871 15.4513 2.27873 174.601 -27.4243 -177.421
lowerback 8.30616 2.35309 1.19146
upperback 6.15711 2.73658 -1.74188
thorax 1.87319 1.241 -2.64807
lowerneck 6.49364 3.70423 8.51362
upperneck 3.33788 5.33975 -3.28031
head 0.280581 2.70877 -2.59434
rclavicle -1.5704e-014 1.43125e-014
rhumerus -11.2793 7.65037 -68.6008
rradius 95.5652
rwrist -20.6886
rhand -29.452 16.5964
rfingers 7.12502
rthumb -2.78822 -13.3651
lclavicle -1.5704e-014 1.43125e-014
lhumerus -8.017 -12.4851 46.9849
lradius 101.709
lwrist 8.05933
lhand -26.942 3.12281
lfingers 7.12502
lthumb -0.364112 33.1022
rfemur -3.24264 12.3777 24.5113
rtibia 22.1346
rfoot -24.5113 -31.5503
rtoes -17.5164
lfemur -2.80266 -14.9376 -16.4325
ltibia 23.2507
lfoot -18.3664 24.2606
ltoes -12.541
269
root 5.28372 15.46 2.25873 175.076 -27.9779 -178.146
lowerback 7.89187 2.24535 0.530755
upperback 5.99839 2.57809 -1.89418
thorax 1.90026 1.15213 -2.4128
lowerneck 6.17499 3.67219 8.5476
upperneck 3.58706 5.2733 -3.36744
head 0.41411 2.67899 -2.6178
rclavicle -1.39149e-014 2.38542e-015
rhumerus -12.5815 9.79384 -70.1667
rradius 92.1596
rwrist -21.2558
rhand -27.5889 14.6202
rfingers 7.12502
rthumb -0.988829 -15.3572
lclavicle -1.39149e-014 2.38542e-015
lhumerus -9.35118 -15.3769 49.2332
lradius 98.9434
lwrist 7.93519
lhand -26.2358 3.77904
lfingers 7.12502
lthumb 0.31805 33.7585
rfemur -3.11351 12.7113 23.8785
rtibia 21.9962
rfoot -25.2463 -32.0691
rtoes -16.7639
lfemur -2.6873 -15.5428 -17.2017
ltibia 22.7828
lfoot -18.0773 24.5151
ltoes -13.3316
270
root 5.27588 15.4647 2.23911 175.278 -28.3334 -178.48
lowerback 7.59396 2.19484 0.320696
upperback 5.83213 2.52272 -1.99414
thorax 1.88292 1.12806 -2.3869
lowerneck 5.99053 3.61802 8.53442
upperneck 3.80942 5.17943 -3.28143
head 0.508023 2.63268 -2.5786
rclavicle -6.77856e-014 6.2816e-014
rhumerus -14.0724 11.7143 -71.8557
rradius 88.5853
rwrist -21.8537
rhand -25.2029 11.9082
rfingers 7.12502
rthumb 1.31565 -18.0675
lclavicle -6.77856e-014 6.2816e-014
lhumerus -10.7006 -18.0325 51.7186
lradius 95.7655
lwrist 7.31124
lhand -25.0914 4.55234
lfingers 7.12502
lthumb 1.42329 34.5273
rfemur -2.96301 13.0452 23.6217
rtibia 21.9701
rfoot -25.9567 -32.4106
rtoes -15.8572
lfemur -2.39178 -16.1475 -17.6422
ltibia 22.2803
lfoot -17.9377 24.8201
ltoes -13.2831
271
root 5.26737 15.4676 2.22566 175.2 -28.5078 -178.293
lowerback 7.42539 2.16526 0.556411
upperback 5.63528 2.52321 -1.91337
thorax 1.77808 1.14428 -2.43224
lowerneck 5.86422 3.56168 8.35791
upperneck 3.98559 5.07881 -3.15545
head 0.57081 2.58075 -2.49838
rclavicle 3.67752e-014 -6.12257e-014
rhumerus -15.5184 13.6194 -73.4891
rradius 84.8104
rwrist -22.9517
rhand -22.7623 8.37493
rfingers 7.12502
rthumb 3.67261 -21.5732
lclavicle 3.67752e-014 -6.12257e-014
lhumerus -12.012 -20.237 54.5079
lradius 92.0855
lwrist 6.22885
lhand -23.304 5.70018
lfingers 7.12502
lthumb 3.1495 35.6567
rfemur -2.86713 13.4047 23.8677
rtibia 22.0174
rfoot -26.5183 -32.7448
rtoes -15.2207
lfemur -2.10341 -16.4568 -17.528
ltibia 21.8252
lfoot -17.8343 24.9512
ltoes -13.1439
272
root 5.25949 15.4718 2.21524 175.402 -28.6894 -178.479
lowerback 7.18446 2.15992 0.42547
upperback 5.44249 2.53323 -1.90865
thorax 1.70414 1.15409 -2.34871
lowerneck 5.59318 3.47995 8.2216
upperneck 4.17136 4.94023 -3.10299
head 0.662439 2.51142 -2.44719
rclavicle 8.24956e-014 5.56597e-015
rhumerus -16.8244 15.4765 -75.109
rradius 80.9243
rwrist -24.8867
rhand -20.4825 4.18263
rfingers 7.12502
rthumb 5.87397 -25.7159
lclavicle 8.24956e-014 5.56597e-015
lhumerus -13.2991 -22.0544 57.4634
lradius 88.1062
lwrist 4.67681
lhand -20.9691 6.99346
lfingers 7.12502
lthumb 5.40421 36.9046
rfemur -2.84815 13.7112 23.7183
rtibia 21.9576
rfoot -27.0447 -32.9811
rtoes -14.4555
lfemur -2.06767 -16.5628 -17.7014
ltibia 21.5753
lfoot -17.7691 24.9585
ltoes -13.2808
273
root 5.24928 15.4698 2.20742 175.439 -28.9816 -178.75
lowerback 7.14836 2.12833 0.276846
upperback 5.35321 2.49138 -1.9496
thorax 1.62426 1.13224 -2.30564
lowerneck 5.15971 3.39243 8.14566
upperneck 4.45137 4.78395 -3.04504
head 0.812751 2.4347 -2.40165
rclavicle 6.85807e-015 -3.33958e-014
rhumerus -18.05 17.3159 -76.742
rradius 76.9368
rwrist -26.987
rhand -18.5691 0.0947101
rfingers 7.12502
rthumb 7.72109 -29.7443
lclavicle 6.85807e-015 -3.33958e-014
lhumerus -14.7913 -23.2313 60.6737
lradius 83.9598
lwrist 2.45064
lhand -18.5477 8.15788
lfingers 7.12502
lthumb 7.74177 37.9962
rfemur -2.55008 13.9037 23.5118
rtibia 21.8379
rfoot -27.594 -33.1591
rtoes -13.6326
lfemur -1.90293 -16.7902 -18.0587
ltibia 21.4825
lfoot -17.7322 24.9547
ltoes -13.4877
274
root 5.24226 15.4702 2.19417 175.522 -29.2457 -178.706
lowerback 6.87701 2.10674 0.329521
upperback 5.23676 2.48567 -1.9005
thorax 1.65291 1.13782 -2.27614
lowerneck 4.73197 3.31872 7.90334
upperneck 4.67675 4.63702 -2.82
head 0.935945 2.36001 -2.27201
rclavicle 2.68359e-015 -1.11319e-014
rhumerus -19.2723 19.1863 -78.4226
rradius 72.7848
rwrist -28.1542
rhand -17.5346 -3.05996
rfingers 7.12502
rthumb 8.71947 -32.8599
lclavicle 2.68359e-015 -1.11319e-014
lhumerus -15.6964 -24.9519 63.4758
lradius 79.1467
lwrist 1.00661
lhand -17.1863 9.18137
lfingers 7.12502
lthumb 9.05553 38.967
rfemur -2.48177 14.1543 23.5984
rtibia 21.7775
rfoot -28.1471 -33.3941
rtoes -12.9647
lfemur -1.94881 -16.939 -18.0112
ltibia 21.3828
lfoot -17.5355 24.9265
ltoes -14.0616
275
root 5.24025 15.4697 2.183 175.524 -29.6142 -178.528
lowerback 6.7466 2.07379 0.474086
upperback 5.08706 2.46856 -1.81081
thorax 1.57117 1.13924 -2.26135
lowerneck 4.38588 3.17222 7.63599
upperneck 4.78638 4.40279 -2.59673
head 1.00302 2.24114 -2.14268
rclavicle -6.97734e-014 3.73715e-014
rhumerus -20.4681 20.6268 -80.0514
rradius 68.4545
rwrist -26.7103
rhand -15.4029 -5.50714
rfingers 7.12502
rthumb 10.7762 -35.2107
lclavicle -6.97734e-014 3.73715e-014
lhumerus -16.5808 -26.7834 66.2519
lradius 74.1219
lwrist 0.533645
lhand -16.7477 9.42052
lfingers 7.12502
lthumb 9.47877 39.1873
rfemur -2.41196 14.2724 23.8145
rtibia 21.6994
rfoot -28.6313 -33.6865
rtoes -12.555
lfemur -2.06178 -17.066 -17.8044
ltibia 21.3478
lfoot -17.3312 24.7664
ltoes -14.5348
276
root 5.2048 15.464 2.15554 175.24 -29.201 -178.503
lowerback 6.50328 2.1884 0.630014
upperback 5.16185 2.62933 -1.7814
thorax 1.79679 1.22483 -2.31565
lowerneck 3.82748 3.12197 7.59029
upperneck 5.049 4.29588 -2.61188
head 1.17604 2.19033 -2.12874
rclavicle -6.36111e-014 4.77083e-015
rhumerus -21.549 22.4182 -81.8107
rradius 64.2666
rwrist -25.299
rhand -13.6111 -6.66415
rfingers 7.12502
rthumb 12.5041 -36.27
lclavicle -6.36111e-014 4.77083e-015
lhumerus -17.7772 -27.9849 68.9339
lradius 69.3624
lwrist 0.992456
lhand -16.5727 9.0259
lfingers 7.12502
lthumb 9.64765 38.785
rfemur -1.92393 14.4152 23.8878
rtibia 21.5912
rfoot -28.2174 -33.6948
rtoes -13.8658
lfemur -1.42867 -17.2346 -18.0716
ltibia 21.3387
lfoot -17.9623 25.1951
ltoes -13.7708
277
root 5.18915 15.4641 2.14286 175.163 -29.4114 -178.478
lowerback 6.38859 1.89883 0.410279
upperback 5.20449 2.23457 -1.69412
thorax 1.87305 1.02014 -2.08035
lowerneck 2.97961 3.31888 7.64492
upperneck 5.40121 4.50729 -2.75968
head 1.45396 2.30047 -2.17042
rclavicle -2.94201e-014 -1.82882e-014
rhumerus -22.3181 24.6095 -83.6927
rradius 60.2095
rwrist -24.2357
rhand -11.425 -6.66285
rfingers 7.12502
rthumb 14.6111 -36.1282
lclavicle -2.94201e-014 -1.82882e-014
lhumerus -19.2624 -28.4028 71.4109
lradius 64.944
lwrist 2.10451
lhand -17.1544 7.74345
lfingers 7.12502
lthumb 9.08638 37.5277
rfemur -1.72601 14.5306 23.9305
rtibia 21.5853
rfoot -28.4277 -33.931
rtoes -14.0784
lfemur -1.26127 -17.5918 -18.1749
ltibia 21.2575
lfoot -18.1844 25.266
ltoes -13.2771
278
root 5.18271 15.4638 2.13055 175.262 -29.8332 -178.54
lowerback 6.30154 1.53758 0.0490195
upperback 5.19598 1.74171 -1.61312
thorax 1.87755 0.763264 -1.77033
lowerneck 2.09686 3.50968 7.48642
upperneck 5.61332 4.70721 -2.7792
head 1.68394 2.40095 -2.13036
rclavicle -2.38542e-015 -6.36111e-015
rhumerus -23.1016 26.6205 -85.5932
rradius 56.2218
rwrist -23.7434
rhand -9.21752 -5.58957
rfingers 7.12502
rthumb 16.737 -34.8881
lclavicle -2.38542e-015 -6.36111e-015
lhumerus -20.8732 -28.5998 73.8377
lradius 60.9366
lwrist 2.36539
lhand -18.3119 5.27598
lfingers 7.12502
lthumb 7.96928 35.1058
rfemur -1.58257 14.6117 23.9112
rtibia 21.441
rfoot -28.9193 -34.1942
rtoes -13.4049
lfemur -1.4238 -17.7264 -18.2078
ltibia 21.3582
lfoot -18.1666 24.9794
ltoes -13.062
279
root 5.17239 15.4608 2.11514 175.438 -30.255 -178.903
lowerback 6.3085 1.27177 -0.37525
upperback 5.19226 1.36807 -1.64877
thorax 1.84756 0.563991 -1.55281
lowerneck 1.16636 3.59317 7.20607
upperneck 5.78056 4.76241 -2.7084
head 1.89398 2.42728 -2.03983
rclavicle 1.3418e-014 7.95139e-015
rhumerus -24.0873 28.4858 -87.5295
rradius 52.4471
rwrist -24.0862
rhand -7.98358 -4.43849
rfingers 7.12502
rthumb 17.9246 -33.6325
lclavicle 1.3418e-014 7.95139e-015
lhumerus -22.613 -29.2058 76.1785
lradius 57.542
lwrist -0.481473
lhand -19.5342 3.1134
lfingers 7.12502
lthumb 6.78947 32.9845
rfemur -1.35285 14.6319 23.6091
rtibia 21.3175
rfoot -29.499 -34.3309
rtoes -12.4997
lfemur -1.46483 -17.9357 -18.6064
ltibia 21.4591
lfoot -17.998 24.9285
ltoes -13.5574
